<?xml version="1.0" encoding="UTF-8" standalone="no"?>
<!-- Created with Inkscape (http://www.inkscape.org/) -->

<svg
   width="210mm"
   height="297mm"
   viewBox="0 0 210 297"
   version="1.1"
   id="svg5"
   inkscape:version="1.1 (c68e22c387, 2021-05-23)"
   sodipodi:docname="yin_yang.svg"
   xmlns:inkscape="http://www.inkscape.org/namespaces/inkscape"
   xmlns:sodipodi="http://sodipodi.sourceforge.net/DTD/sodipodi-0.dtd"
   xmlns="http://www.w3.org/2000/svg"
   xmlns:svg="http://www.w3.org/2000/svg">
  <sodipodi:namedview
     id="namedview7"
     pagecolor="#505050"
     bordercolor="#eeeeee"
     borderopacity="1"
     inkscape:pageshadow="0"
     inkscape:pageopacity="0"
     inkscape:pagecheckerboard="0"
     inkscape:document-units="mm"
     showgrid="false"
     inkscape:zoom="1.3416246"
     inkscape:cx="629.46074"
     inkscape:cy="613.80808"
     inkscape:window-width="1858"
     inkscape:window-height="1057"
     inkscape:window-x="1912"
     inkscape:window-y="-8"
     inkscape:window-maximized="1"
     inkscape:current-layer="layer1"
     inkscape:object-paths="true"
     inkscape:snap-global="true"
     inkscape:snap-smooth-nodes="true"
     inkscape:snap-object-midpoints="true" />
  <defs
     id="defs2">
    <filter
       style="color-interpolation-filters:sRGB;"
       inkscape:label="Drop Shadow"
       id="filter2063"
       x="-0.080915747"
       y="-0.080915401"
       width="1.1888034"
       height="1.1888026">
      <feFlood
         flood-opacity="0.819608"
         flood-color="rgb(0,0,0)"
         result="flood"
         id="feFlood2053" />
      <feComposite
         in="flood"
         in2="SourceGraphic"
         operator="in"
         result="composite1"
         id="feComposite2055" />
      <feGaussianBlur
         in="composite1"
         stdDeviation="2.5"
         result="blur"
         id="feGaussianBlur2057" />
      <feOffset
         dx="2"
         dy="2"
         result="offset"
         id="feOffset2059" />
      <feComposite
         in="SourceGraphic"
         in2="offset"
         operator="over"
         result="composite2"
         id="feComposite2061" />
    </filter>
  </defs>
  <g
     inkscape:label="Layer 1"
     inkscape:groupmode="layer"
     id="layer1">
    <g
       id="g2051"
       style="filter:url(#filter2063)">
      <path
         id="path850"
         style="opacity:1;fill:#000000;stroke-width:32.0013;paint-order:stroke fill markers"
         d="M 388.12109 389.125 A 140.12861 140.12861 0 0 1 389.27734 389.16797 A 140.12861 140.12861 0 0 0 388.12109 389.125 z M 391.57812 389.25586 A 140.12861 140.12861 0 0 1 393.23438 389.35742 A 140.12861 140.12861 0 0 0 391.57812 389.25586 z M 379.86914 389.25781 A 140.12861 140.12861 0 0 0 244.48047 529.20898 A 140.12861 140.12861 0 0 0 384.60742 669.33789 A 140.12861 140.12861 0 0 0 384.61133 669.33789 L 384.60742 669.33594 C 384.6348 669.33594 384.66221 669.33496 384.68945 669.33398 A 140.12861 140.12861 0 0 0 384.76367 669.33008 L 384.76367 669.33203 A 140.12861 140.12861 0 0 0 389.33008 669.16016 C 425.82062 666.72875 454.67188 636.37787 454.67188 599.27148 C 454.67187 560.57623 423.30268 529.20898 384.60742 529.20898 C 345.91217 529.20898 314.54492 497.83983 314.54492 459.14453 C 314.54492 422.04367 343.38628 391.69716 379.86914 389.25781 z M 389.33008 669.16016 A 140.12861 140.12861 0 0 0 484.93945 626.91211 A 140.12861 140.12861 0 0 1 389.33008 669.16016 z M 395.05078 389.47461 A 140.12861 140.12861 0 0 1 396.60156 389.60547 A 140.12861 140.12861 0 0 0 395.05078 389.47461 z M 398.66211 389.79297 A 140.12861 140.12861 0 0 1 399.95508 389.93359 A 140.12861 140.12861 0 0 0 398.66211 389.79297 z M 402.09766 390.18164 A 140.12861 140.12861 0 0 1 403.60156 390.38281 A 140.12861 140.12861 0 0 0 402.09766 390.18164 z M 405.58203 390.66602 A 140.12861 140.12861 0 0 1 407.02344 390.89453 A 140.12861 140.12861 0 0 0 405.58203 390.66602 z M 409.07422 391.24023 A 140.12861 140.12861 0 0 1 410.5332 391.50781 A 140.12861 140.12861 0 0 0 409.07422 391.24023 z M 412.45312 391.88281 A 140.12861 140.12861 0 0 1 414.00195 392.20508 A 140.12861 140.12861 0 0 0 412.45312 391.88281 z M 415.87305 392.62109 A 140.12861 140.12861 0 0 1 417.4707 392.99609 A 140.12861 140.12861 0 0 0 415.87305 392.62109 z M 419.32617 393.45898 A 140.12861 140.12861 0 0 1 420.78711 393.83789 A 140.12861 140.12861 0 0 0 419.32617 393.45898 z M 422.74414 394.37891 A 140.12861 140.12861 0 0 1 424.22266 394.80273 A 140.12861 140.12861 0 0 0 422.74414 394.37891 z M 425.99219 395.3418 A 140.12861 140.12861 0 0 1 427.60156 395.84375 A 140.12861 140.12861 0 0 0 425.99219 395.3418 z M 429.48828 396.47266 A 140.12861 140.12861 0 0 1 430.85156 396.93359 A 140.12861 140.12861 0 0 0 429.48828 396.47266 z M 433.1543 397.76758 A 140.12861 140.12861 0 0 1 434.14258 398.12891 A 140.12861 140.12861 0 0 0 433.1543 397.76758 z M 436.57617 399.08203 A 140.12861 140.12861 0 0 1 437.44922 399.42578 A 140.12861 140.12861 0 0 0 436.57617 399.08203 z M 440.64648 400.77539 A 140.12861 140.12861 0 0 1 441.48047 401.15039 A 140.12861 140.12861 0 0 0 440.64648 400.77539 z M 443.88281 402.23633 A 140.12861 140.12861 0 0 1 444.90625 402.72656 A 140.12861 140.12861 0 0 0 443.88281 402.23633 z M 446.98242 403.73047 A 140.12861 140.12861 0 0 1 448.29102 404.39844 A 140.12861 140.12861 0 0 0 446.98242 403.73047 z M 450.16406 405.36719 A 140.12861 140.12861 0 0 1 451.25781 405.95703 A 140.12861 140.12861 0 0 0 450.16406 405.36719 z M 453.25586 407.05273 A 140.12861 140.12861 0 0 1 454.44922 407.73633 A 140.12861 140.12861 0 0 0 453.25586 407.05273 z M 456.22266 408.76953 A 140.12861 140.12861 0 0 1 457.58203 409.5918 A 140.12861 140.12861 0 0 0 456.22266 408.76953 z M 459.23047 410.61133 A 140.12861 140.12861 0 0 1 460.5332 411.44336 A 140.12861 140.12861 0 0 0 459.23047 410.61133 z M 462.1582 412.50586 A 140.12861 140.12861 0 0 1 463.46094 413.38086 A 140.12861 140.12861 0 0 0 462.1582 412.50586 z M 465.08594 414.50391 A 140.12861 140.12861 0 0 1 466.32422 415.38086 A 140.12861 140.12861 0 0 0 465.08594 414.50391 z M 468.01953 416.62109 A 140.12861 140.12861 0 0 1 469.10938 417.43359 A 140.12861 140.12861 0 0 0 468.01953 416.62109 z M 470.7793 418.7207 A 140.12861 140.12861 0 0 1 471.93945 419.62891 A 140.12861 140.12861 0 0 0 470.7793 418.7207 z M 473.57812 420.96094 A 140.12861 140.12861 0 0 1 474.60938 421.81055 A 140.12861 140.12861 0 0 0 473.57812 420.96094 z M 476.42578 423.36523 A 140.12861 140.12861 0 0 1 477.26758 424.0918 A 140.12861 140.12861 0 0 0 476.42578 423.36523 z M 479.04688 425.69727 A 140.12861 140.12861 0 0 1 479.91016 426.48047 A 140.12861 140.12861 0 0 0 479.04688 425.69727 z M 487.33594 433.90625 A 140.12861 140.12861 0 0 1 488.24414 434.90625 A 140.12861 140.12861 0 0 0 487.33594 433.90625 z M 489.68164 436.50195 A 140.12861 140.12861 0 0 1 490.625 437.5918 A 140.12861 140.12861 0 0 0 489.68164 436.50195 z M 491.96289 439.1543 A 140.12861 140.12861 0 0 1 492.95703 440.36328 A 140.12861 140.12861 0 0 0 491.96289 439.1543 z M 494.17578 441.86133 A 140.12861 140.12861 0 0 1 495.19922 443.16797 A 140.12861 140.12861 0 0 0 494.17578 441.86133 z M 496.28906 444.58203 A 140.12861 140.12861 0 0 1 497.32031 445.9668 A 140.12861 140.12861 0 0 0 496.28906 444.58203 z M 498.41602 447.4668 A 140.12861 140.12861 0 0 1 499.32617 448.75195 A 140.12861 140.12861 0 0 0 498.41602 447.4668 z M 500.42969 450.34766 A 140.12861 140.12861 0 0 1 501.28906 451.62305 A 140.12861 140.12861 0 0 0 500.42969 450.34766 z M 502.37109 453.27539 A 140.12861 140.12861 0 0 1 503.23438 454.62891 A 140.12861 140.12861 0 0 0 502.37109 453.27539 z M 504.22266 456.23047 A 140.12861 140.12861 0 0 1 505.04883 457.59961 A 140.12861 140.12861 0 0 0 504.22266 456.23047 z M 506.00781 459.24219 A 140.12861 140.12861 0 0 1 506.81445 460.65234 A 140.12861 140.12861 0 0 0 506.00781 459.24219 z M 507.72266 462.30469 A 140.12861 140.12861 0 0 1 508.49023 463.72656 A 140.12861 140.12861 0 0 0 507.72266 462.30469 z M 509.38477 465.45898 A 140.12861 140.12861 0 0 1 510.08594 466.83789 A 140.12861 140.12861 0 0 0 509.38477 465.45898 z M 510.99219 468.70898 A 140.12861 140.12861 0 0 1 511.59961 469.97461 A 140.12861 140.12861 0 0 0 510.99219 468.70898 z M 515.6875 479.67578 A 140.12861 140.12861 0 0 1 516.08203 480.75586 A 140.12861 140.12861 0 0 0 515.6875 479.67578 z M 516.86914 482.92383 A 140.12861 140.12861 0 0 1 517.33594 484.30273 A 140.12861 140.12861 0 0 0 516.86914 482.92383 z M 518 486.29492 A 140.12861 140.12861 0 0 1 518.40039 487.58203 A 140.12861 140.12861 0 0 0 518 486.29492 z M 519.03125 489.64844 A 140.12861 140.12861 0 0 1 519.44336 491.0957 A 140.12861 140.12861 0 0 0 519.03125 489.64844 z M 519.96094 492.95898 A 140.12861 140.12861 0 0 1 520.35547 494.47852 A 140.12861 140.12861 0 0 0 519.96094 492.95898 z M 520.84766 496.44922 A 140.12861 140.12861 0 0 1 521.17578 497.85938 A 140.12861 140.12861 0 0 0 520.84766 496.44922 z M 521.61914 499.84961 A 140.12861 140.12861 0 0 1 521.92383 501.31055 A 140.12861 140.12861 0 0 0 521.61914 499.84961 z M 522.30469 503.25391 A 140.12861 140.12861 0 0 1 522.5957 504.85156 A 140.12861 140.12861 0 0 0 522.30469 503.25391 z M 522.89258 506.60156 A 140.12861 140.12861 0 0 1 523.16797 508.34961 A 140.12861 140.12861 0 0 0 522.89258 506.60156 z M 523.42578 510.1543 A 140.12861 140.12861 0 0 1 523.63477 511.72656 A 140.12861 140.12861 0 0 0 523.42578 510.1543 z M 523.86133 513.66602 A 140.12861 140.12861 0 0 1 524.03516 515.25781 A 140.12861 140.12861 0 0 0 523.86133 513.66602 z M 524.2168 517.26758 A 140.12861 140.12861 0 0 1 524.33594 518.67383 A 140.12861 140.12861 0 0 0 524.2168 517.26758 z M 524.49414 521.10352 A 140.12861 140.12861 0 0 1 524.55664 522.15625 A 140.12861 140.12861 0 0 0 524.49414 521.10352 z M 524.64258 524.35547 A 140.12861 140.12861 0 0 1 524.69336 525.77344 A 140.12861 140.12861 0 0 0 524.64258 524.35547 z M 524.36328 539.23438 A 140.12861 140.12861 0 0 1 523.84961 544.07812 A 140.12861 140.12861 0 0 0 524.36328 539.23438 z M 523.27148 549.2168 A 140.12861 140.12861 0 0 1 522.27734 554.82227 A 140.12861 140.12861 0 0 0 523.27148 549.2168 z M 521.48047 559.04102 A 140.12861 140.12861 0 0 1 519.97656 565.04492 A 140.12861 140.12861 0 0 0 521.48047 559.04102 z M 518.99805 568.70117 A 140.12861 140.12861 0 0 1 517.00781 574.81445 A 140.12861 140.12861 0 0 0 518.99805 568.70117 z M 515.83203 578.16992 A 140.12861 140.12861 0 0 1 513.33203 584.34375 A 140.12861 140.12861 0 0 0 515.83203 578.16992 z M 512.02734 587.33203 A 140.12861 140.12861 0 0 1 508.99414 593.53711 A 140.12861 140.12861 0 0 0 512.02734 587.33203 z M 507.60352 596.16797 A 140.12861 140.12861 0 0 1 504.00586 602.38672 A 140.12861 140.12861 0 0 0 507.60352 596.16797 z M 502.61133 604.60938 A 140.12861 140.12861 0 0 1 498.39648 610.8457 A 140.12861 140.12861 0 0 0 502.61133 604.60938 z M 497.10352 612.59766 A 140.12861 140.12861 0 0 1 492.18164 618.88281 A 140.12861 140.12861 0 0 0 497.10352 612.59766 z M 491.19141 620.03516 A 140.12861 140.12861 0 0 1 485.44141 626.41016 A 140.12861 140.12861 0 0 0 491.19141 620.03516 z "
         transform="scale(0.26458333)" />
      <path
         id="circle972"
         style="opacity:1;fill:#ffffff;stroke-width:8.46701;paint-order:stroke fill markers"
         d="m 101.76089,102.94416 a 37.075694,37.075694 0 0 0 -1.25367,0.047 c -9.652757,0.64541 -17.283703,8.67459 -17.283703,18.49086 0,10.23813 8.299254,18.53789 18.537373,18.53789 10.23812,0 18.53788,8.29925 18.53788,18.53737 0,9.81773 -7.63356,17.84807 -17.28835,18.49138 a 37.075694,37.075694 0 0 0 35.82624,-37.02875 37.075694,37.075694 0 0 0 -37.07577,-37.07577 z m 0.0413,74.14999 c -0.0139,3e-5 -0.0275,10e-4 -0.0413,10e-4 l 10e-4,5.1e-4 a 37.075694,37.075694 0 0 0 0.0403,-0.002 z" />
      <path
         id="circle1084"
         style="opacity:1;fill:#ffffff;stroke-width:8.46699;paint-order:stroke fill markers"
         d="m 106.39546,158.55748 a 4.6345,4.6345 0 0 1 -4.6345,4.6345 4.6345,4.6345 0 0 1 -4.634497,-4.6345 4.6345,4.6345 0 0 1 4.634497,-4.6345 4.6345,4.6345 0 0 1 4.6345,4.6345 z" />
      <path
         id="circle1206"
         style="opacity:1;fill:#000000;stroke-width:8.46699;paint-order:stroke fill markers"
         d="m 106.39546,121.48198 a 4.6345,4.6345 0 0 1 -4.6345,4.6345 4.6345,4.6345 0 0 1 -4.634497,-4.6345 4.6345,4.6345 0 0 1 4.634497,-4.6345 4.6345,4.6345 0 0 1 4.6345,4.6345 z" />
    </g>
  </g>
</svg>
